<?xml version="1.0" standalone="no"?>
<!DOCTYPE svg PUBLIC "-//W3C//DTD SVG 20010904//EN"
 "http://www.w3.org/TR/2001/REC-SVG-20010904/DTD/svg10.dtd">
<svg version="1.0" xmlns="http://www.w3.org/2000/svg"
 width="135.000000pt" height="135.000000pt" viewBox="0 0 135.000000 135.000000"
 preserveAspectRatio="xMidYMid meet">
<metadata>
Created by potrace 1.11, written by Peter Selinger 2001-2013
</metadata>
<g transform="translate(0.000000,135.000000) scale(0.100000,-0.100000)"
fill="#000000" stroke="none">
<path d="M1052 1008 c-6 -7 -14 -26 -17 -41 -10 -39 -20 -41 -69 -12 -33 19
-59 26 -101 26 -64 1 -101 -16 -360 -164 -265 -151 -273 -159 -283 -273 -4
-52 0 -70 23 -123 63 -140 224 -218 333 -162 20 11 136 89 257 174 240 167
265 193 265 275 l0 42 39 0 c47 0 71 8 71 23 0 6 -20 32 -44 57 -35 36 -48 59
-63 114 -20 71 -32 87 -51 64z m-154 -64 c75 -15 162 -133 162 -220 0 -84 -10
-96 -186 -219 -91 -64 -171 -118 -179 -121 -11 -5 -14 5 -13 43 0 27 -5 67
-11 89 -22 81 -109 171 -189 196 -23 7 -42 16 -42 20 0 16 378 218 409 218 10
0 32 -3 49 -6z m182 -66 c0 -9 11 -30 25 -46 30 -36 31 -44 4 -40 -25 4 -65
88 -55 115 6 15 8 15 16 3 6 -8 10 -23 10 -32z m-560 -226 c82 -50 138 -162
124 -246 -19 -114 -125 -158 -242 -100 -96 48 -147 135 -140 240 4 70 26 104
83 130 43 20 120 9 175 -24z"/>
<path d="M340 631 c-15 -28 -12 -46 8 -64 24 -22 45 -21 65 1 20 22 22 53 5
70 -19 19 -66 15 -78 -7z"/>
<path d="M461 586 c-16 -19 -10 -66 10 -79 26 -16 68 0 75 29 12 47 -55 87
-85 50z"/>
<path d="M345 500 c-15 -16 -17 -26 -9 -48 17 -50 94 -39 94 14 0 49 -52 70
-85 34z"/>
<path d="M535 465 c-28 -27 -23 -62 10 -77 44 -20 88 28 66 70 -16 31 -50 34
-76 7z"/>
<path d="M443 399 c-39 -14 -40 -69 -2 -89 23 -13 65 3 71 27 12 46 -24 79
-69 62z"/>
</g>
</svg>
